HIERARCHY
ROOT reference
{
  OFFSET 0 0 0
  CHANNELS 6 Xposition Yposition Zposition Zrotation Xrotation Yrotation
  JOINT Hips
  {
    OFFSET 355.919 86.4685 225.794
    CHANNELS 3 Zrotation Xrotation Yrotation
    JOINT RightUpLeg
    {
      OFFSET -9.27022 -1.53975 0.0125073
      CHANNELS 3 Zrotation Xrotation Yrotation
      JOINT RightLeg
      {
        OFFSET 0.013591 -41.8786 0.0152335
        CHANNELS 3 Zrotation Xrotation Yrotation
        JOINT RightFoot
        {
          OFFSET -0.635566 -43.1371 -0.638083
          CHANNELS 3 Zrotation Xrotation Yrotation
          End Site
          {
            OFFSET 0 -7.69 17.5
          }
        }
      }
    }
    JOINT LeftUpLeg
    {
      OFFSET 9.3307 -1.62449 -0.0651281
      CHANNELS 3 Zrotation Xrotation Yrotation
      JOINT LeftLeg
      {
        OFFSET 0.136006 -41.8606 -0.0682192
        CHANNELS 3 Zrotation Xrotation Yrotation
        JOINT LeftFoot
        {
          OFFSET 0.555276 -40.3296 1.11688
          CHANNELS 3 Zrotation Xrotation Yrotation
          End Site
          {
            OFFSET 0 -7.69 17.5
          }
        }
      }
    }
    JOINT Spine
    {
      OFFSET 0.0523142 14.2998 0.0636653
      CHANNELS 3 Zrotation Xrotation Yrotation
      JOINT Spine1
      {
        OFFSET 0.0411785 9.71676 0.0113233
        CHANNELS 3 Zrotation Xrotation Yrotation
        JOINT Spine2
        {
          OFFSET 0.0674534 10.1151 -0.00111457
          CHANNELS 3 Zrotation Xrotation Yrotation
          JOINT Spine3
          {
            OFFSET 0.048863 9.72171 0.0174249
            CHANNELS 3 Zrotation Xrotation Yrotation
            JOINT Neck
            {
              OFFSET 0.180558 10.3768 0.0617075
              CHANNELS 3 Zrotation Xrotation Yrotation
              JOINT Head
              {
                OFFSET 0.135918 9.47305 0.0380206
                CHANNELS 3 Zrotation Xrotation Yrotation
                End Site
                {
                  OFFSET 0 15.95 0
                }
              }
            }
            JOINT RightShoulder
            {
              OFFSET -3.15694 6.89408 0.00348883
              CHANNELS 3 Zrotation Xrotation Yrotation
              JOINT RightArm
              {
                OFFSET -12.7409 -0.0031918 0.045926
                CHANNELS 3 Zrotation Xrotation Yrotation
                JOINT RightForeArm
                {
                  OFFSET -26.5086 -0.0806184 0.00400063
                  CHANNELS 3 Zrotation Xrotation Yrotation
                  JOINT RightHand
                  {
                    OFFSET -26.0338 -0.025514 0.155859
                    CHANNELS 3 Zrotation Xrotation Yrotation
                    JOINT RightHandThumb1
                    {
                      OFFSET -2.48905 0.190105 3.12053
                      CHANNELS 3 Zrotation Xrotation Yrotation
                      JOINT RightHandThumb2
                      {
                        OFFSET -3.68274 0 0
                        CHANNELS 3 Zrotation Xrotation Yrotation
                        JOINT RightHandThumb3
                        {
                          OFFSET -2.55832 0 0
                          CHANNELS 3 Zrotation Xrotation Yrotation
                          End Site
                          {
                            OFFSET -2.194 0 0
                          }
                        }
                      }
                    }
                    JOINT RightInHandIndex
                    {
                      OFFSET -3.22368 0.508421 1.97842
                      CHANNELS 3 Zrotation Xrotation Yrotation
                      JOINT RightHandIndex1
                      {
                        OFFSET -5.21684 -0.091368 0.999158
                        CHANNELS 3 Zrotation Xrotation Yrotation
                        JOINT RightHandIndex2
                        {
                          OFFSET -3.61937 0 0
                          CHANNELS 3 Zrotation Xrotation Yrotation
                          JOINT RightHandIndex3
                          {
                            OFFSET -2.0521 0 0
                            CHANNELS 3 Zrotation Xrotation Yrotation
                            End Site
                            {
                              OFFSET -1.805 0 0
                            }
                          }
                        }
                      }
                    }
                    JOINT RightInHandMiddle
                    {
                      OFFSET -3.38211 0.517263 0.756737
                      CHANNELS 3 Zrotation Xrotation Yrotation
                      JOINT RightHandMiddle1
                      {
                        OFFSET -5.17411 -0.084 0.313895
                        CHANNELS 3 Zrotation Xrotation Yrotation
                        JOINT RightHandMiddle2
                        {
                          OFFSET -3.94947 0 0
                          CHANNELS 3 Zrotation Xrotation Yrotation
                          JOINT RightHandMiddle3
                          {
                            OFFSET -2.47579 0 0
                            CHANNELS 3 Zrotation Xrotation Yrotation
                            End Site
                            {
                              OFFSET -1.975 0 0
                            }
                          }
                        }
                      }
                    }
                    JOINT RightInHandRing
                    {
                      OFFSET -3.36516 0.537895 -0.128947
                      CHANNELS 3 Zrotation Xrotation Yrotation
                      JOINT RightHandRing1
                      {
                        OFFSET -4.63474 -0.022105 -0.478947
                        CHANNELS 3 Zrotation Xrotation Yrotation
                        JOINT RightHandRing2
                        {
                          OFFSET -3.44238 0 0
                          CHANNELS 3 Zrotation Xrotation Yrotation
                          JOINT RightHandRing3
                          {
                            OFFSET -2.3881 0 0
                            CHANNELS 3 Zrotation Xrotation Yrotation
                            End Site
                            {
                              OFFSET -1.857 0 0
                            }
                          }
                        }
                      }
                    }
                    JOINT RightInHandPinky
                    {
                      OFFSET -3.16105 0.469368 -1.20179
                      CHANNELS 3 Zrotation Xrotation Yrotation
                      JOINT RightHandPinky1
                      {
                        OFFSET -4.14105 -0.022105 -1.09053
                        CHANNELS 3 Zrotation Xrotation Yrotation
                        JOINT RightHandPinky2
                        {
                          OFFSET -2.75653 0 0
                          CHANNELS 3 Zrotation Xrotation Yrotation
                          JOINT RightHandPinky3
                          {
                            OFFSET -1.74189 0 0
                            CHANNELS 3 Zrotation Xrotation Yrotation
                            End Site
                            {
                              OFFSET -1.645 0 0
                            }
                          }
                        }
                      }
                    }
                  }
                }
              }
            }
            JOINT LeftShoulder
            {
              OFFSET 3.22505 6.94333 0.022328
              CHANNELS 3 Zrotation Xrotation Yrotation
              JOINT LeftArm
              {
                OFFSET 12.8536 -0.0213048 -0.00476292
                CHANNELS 3 Zrotation Xrotation Yrotation
                JOINT LeftForeArm
                {
                  OFFSET 26.4992 -0.0497473 -0.102272
                  CHANNELS 3 Zrotation Xrotation Yrotation
                  JOINT LeftHand
                  {
                    OFFSET 25.9818 -0.0182282 -0.0189166
                    CHANNELS 3 Zrotation Xrotation Yrotation
                    JOINT LeftHandThumb1
                    {
                      OFFSET 2.48905 0.190105 3.12053
                      CHANNELS 3 Zrotation Xrotation Yrotation
                      JOINT LeftHandThumb2
                      {
                        OFFSET 3.68274 0 0
                        CHANNELS 3 Zrotation Xrotation Yrotation
                        JOINT LeftHandThumb3
                        {
                          OFFSET 2.55832 0 0
                          CHANNELS 3 Zrotation Xrotation Yrotation
                          End Site
                          {
                            OFFSET 2.194 0 0
                          }
                        }
                      }
                    }
                    JOINT LeftInHandIndex
                    {
                      OFFSET 3.22368 0.508421 1.97842
                      CHANNELS 3 Zrotation Xrotation Yrotation
                      JOINT LeftHandIndex1
                      {
                        OFFSET 5.21684 -0.091368 0.999158
                        CHANNELS 3 Zrotation Xrotation Yrotation
                        JOINT LeftHandIndex2
                        {
                          OFFSET 3.61937 0 0
                          CHANNELS 3 Zrotation Xrotation Yrotation
                          JOINT LeftHandIndex3
                          {
                            OFFSET 2.0521 0 0
                            CHANNELS 3 Zrotation Xrotation Yrotation
                            End Site
                            {
                              OFFSET 1.805 0 0
                            }
                          }
                        }
                      }
                    }
                    JOINT LeftInHandMiddle
                    {
                      OFFSET 3.38211 0.517263 0.756737
                      CHANNELS 3 Zrotation Xrotation Yrotation
                      JOINT LeftHandMiddle1
                      {
                        OFFSET 5.17411 -0.084 0.313895
                        CHANNELS 3 Zrotation Xrotation Yrotation
                        JOINT LeftHandMiddle2
                        {
                          OFFSET 3.94947 0 0
                          CHANNELS 3 Zrotation Xrotation Yrotation
                          JOINT LeftHandMiddle3
                          {
                            OFFSET 2.47579 0 0
                            CHANNELS 3 Zrotation Xrotation Yrotation
                            End Site
                            {
                              OFFSET 1.975 0 0
                            }
                          }
                        }
                      }
                    }
                    JOINT LeftInHandRing
                    {
                      OFFSET 3.36516 0.537895 -0.128947
                      CHANNELS 3 Zrotation Xrotation Yrotation
                      JOINT LeftHandRing1
                      {
                        OFFSET 4.63474 -0.022105 -0.478947
                        CHANNELS 3 Zrotation Xrotation Yrotation
                        JOINT LeftHandRing2
                        {
                          OFFSET 3.44238 0 0
                          CHANNELS 3 Zrotation Xrotation Yrotation
                          JOINT LeftHandRing3
                          {
                            OFFSET 2.3881 0 0
                            CHANNELS 3 Zrotation Xrotation Yrotation
                            End Site
                            {
                              OFFSET 1.857 0 0
                            }
                          }
                        }
                      }
                    }
                    JOINT LeftInHandPinky
                    {
                      OFFSET 3.16105 0.469368 -1.20179
                      CHANNELS 3 Zrotation Xrotation Yrotation
                      JOINT LeftHandPinky1
                      {
                        OFFSET 4.14105 -0.022105 -1.09053
                        CHANNELS 3 Zrotation Xrotation Yrotation
                        JOINT LeftHandPinky2
                        {
                          OFFSET 2.75653 0 0
                          CHANNELS 3 Zrotation Xrotation Yrotation
                          JOINT LeftHandPinky3
                          {
                            OFFSET 1.74189 0 0
                            CHANNELS 3 Zrotation Xrotation Yrotation
                            End Site
                            {
                              OFFSET 1.645 0 0
                            }
                          }
                        }
                      }
                    }
                  }
                }
              }
            }
          }
        }
      }
    }
  }
}
MOTION
Frames: 2
Frame Time: 0.00833333
7.500000000000000000e+02 0.000000000000000000e+00 0.000000000000000000e+00 0.000000000000000000e+00 0.000000000000000000e+00 0.000000000000000000e+00 2.308167836272931872e+00 5.177524637956141262e-01 -9.196499115573928407e+00 6.863620865958040440e+00 -5.144433715576045785e+00 3.444984694807227132e+00 -1.414845973187894845e-01 2.465340211081758603e+00 5.255782757500914171e-01 -1.190310654829219716e+00 2.690860490891429369e-02 5.175786075509481776e+00 7.930779567088857007e+00 5.452887912429591477e-01 5.740525311429617972e+00 -1.141991336627374842e+00 4.015159022756294327e+00 6.666619759306193771e-01 2.435424824996012649e+00 -8.144384507650569427e-01 5.224074839108657109e+00 -4.922392268339820243e-02 -1.210882005064358280e+00 -4.753627468252596522e+00 -1.129406293514426118e-02 -3.694776032223375806e-01 -1.207394953124631076e+00 -1.468341858882231746e-02 -5.915541848174323825e-01 -1.876503361832693173e+00 -7.484814087658939186e-02 6.301596017001452610e-02 5.181021809917225607e-01 5.627205554153151545e-02 8.593133112147504082e-01 5.248143943304378389e+00 -1.631561980753277963e+00 -1.092465303605761190e-01 6.660327663491111494e+00 2.117047983690278468e+00 2.553671806733756267e+00 -2.816479447669680614e+00 3.158256419391196612e+00 -2.745514451618218388e+00 -7.522108714727059109e+00 2.383444976853601904e+00 -4.400160615991921986e+00 1.202512560996122204e+01 -1.506806633769296688e+00 -1.291333814401511404e+00 2.900334710331342158e+00 0.000000000000000000e+00 0.000000000000000000e+00 0.000000000000000000e+00 -4.118551074134315819e-16 -1.519300878694571572e-15 0.000000000000000000e+00 -1.444216254040748207e-15 -1.684013329371890918e-15 0.000000000000000000e+00 1.096249230259058919e-15 1.271032801145726350e-15 -1.429353756684234952e-16 0.000000000000000000e+00 0.000000000000000000e+00 0.000000000000000000e+00 0.000000000000000000e+00 5.768838093396370644e-16 7.800897746714048829e-16 0.000000000000000000e+00 9.506432361112721149e-16 -4.739024403532082537e-16 1.096249230259058919e-15 1.271032801145726350e-15 -1.429353756684234952e-16 0.000000000000000000e+00 1.790993607093254719e-15 -2.085044746825788183e-15 0.000000000000000000e+00 -6.499789853126877471e-16 -5.199136427515302091e-16 0.000000000000000000e+00 -1.772393384620019384e-16 -7.869154080668024907e-16 1.096249230259058919e-15 1.271032801145726350e-15 -1.429353756684234952e-16 0.000000000000000000e+00 0.000000000000000000e+00 0.000000000000000000e+00 0.000000000000000000e+00 8.093874662994702428e-16 -2.222805308689186496e-15 0.000000000000000000e+00 3.922850704825095442e-16 9.166388444025367204e-16 1.096249230259058919e-15 1.271032801145726350e-15 -1.429353756684234952e-16 0.000000000000000000e+00 0.000000000000000000e+00 0.000000000000000000e+00 0.000000000000000000e+00 -6.712446354413819657e-16 7.338405098261676125e-16 0.000000000000000000e+00 -1.818488604388047412e-15 -2.139863963893587972e-16 1.527528730436374715e+00 1.448417290161845061e+00 -7.909919053549985257e-01 4.762138285046854769e+00 2.283296988226605873e+00 -5.047049743584704373e+00 1.739314907377049479e+01 5.196849621831812982e+00 1.727124809999152433e+01 -1.629654036935732186e+00 7.108232833309489074e-01 1.559561526169878753e+00 0.000000000000000000e+00 0.000000000000000000e+00 0.000000000000000000e+00 1.216923210256743237e-16 -8.179253277905052401e-16 0.000000000000000000e+00 -2.526730961351392454e-18 1.721233724356619182e-16 0.000000000000000000e+00 2.484564116272377750e-16 -1.325250740308278611e-15 -4.795250916301904486e-16 0.000000000000000000e+00 0.000000000000000000e+00 0.000000000000000000e+00 0.000000000000000000e+00 3.538353513512309658e-16 -1.587248848085441501e-16 0.000000000000000000e+00 -7.730459749582090521e-16 5.051248605765180132e-16 2.484564116272377750e-16 -1.325250740308278611e-15 -4.795250916301904486e-16 0.000000000000000000e+00 4.651697510593412618e-16 -1.071851062783772455e-15 0.000000000000000000e+00 1.194996285382404584e-16 2.916910238086548906e-16 0.000000000000000000e+00 3.767532021398707220e-16 1.106663113617718431e-15 2.484564116272377750e-16 -1.325250740308278611e-15 -4.795250916301904486e-16 0.000000000000000000e+00 0.000000000000000000e+00 0.000000000000000000e+00 0.000000000000000000e+00 6.045052598217924768e-16 9.395199839779424759e-16 0.000000000000000000e+00 1.947904754989008299e-15 1.585296058724784321e-15 2.484564116272377750e-16 -1.325250740308278611e-15 -4.795250916301904486e-16 0.000000000000000000e+00 0.000000000000000000e+00 0.000000000000000000e+00 0.000000000000000000e+00 2.451991033655101653e-16 2.221270559505654200e-16 0.000000000000000000e+00 4.012607189930824639e-16 -1.278918777776635283e-15
7.500000000000000000e+02 0.000000000000000000e+00 0.000000000000000000e+00 0.000000000000000000e+00 0.000000000000000000e+00 0.000000000000000000e+00 2.329854982122002482e+00 6.829112113850290822e-01 -9.094963141613812141e+00 6.349368790307326371e+00 -5.723457974448720620e+00 2.782809915995574812e+00 -9.473026690063565680e-02 2.688400868459028814e+00 5.351234338679636826e-01 -1.105904865278413363e+00 -1.997196354566568577e-01 5.046878878819375025e+00 8.277037327727093441e+00 -7.961402392836747222e-02 5.996961986448563486e+00 -1.067154679675169415e+00 4.076876364932799923e+00 6.410718337599218275e-01 2.252336647316955265e+00 -8.269329499787749782e-01 4.963750213566343383e+00 3.148323585537589342e-02 -1.002884619531532184e+00 -4.829538346054185638e+00 8.373721364409850154e-03 -3.190002414845241052e-01 -1.231677240392187178e+00 1.831001970819050306e-02 -5.088968410590665181e-01 -1.902275021331215843e+00 -8.011211976265912582e-02 6.789934939131149483e-02 5.112160310412907638e-01 2.013344037613203075e-02 9.467590378630602599e-01 4.959152666452112612e+00 -1.731370285974907386e+00 -2.597187794471910172e-01 6.720324379148997274e+00 2.243777756291136960e+00 2.493341609919343504e+00 -2.736715896680832039e+00 3.770928167418819754e+00 -2.500324098232249437e+00 -7.541839347429230678e+00 2.849301481572199979e+00 -4.748108973240065644e+00 1.104706804757697824e+01 -1.544746569639930955e+00 -1.552953948038712895e+00 2.896593554667821202e+00 0.000000000000000000e+00 0.000000000000000000e+00 0.000000000000000000e+00 -4.625955790954394987e-16 -1.526533937563600785e-15 0.000000000000000000e+00 -1.478290088603538103e-15 -1.568057592776599801e-15 0.000000000000000000e+00 1.161283819556363077e-15 1.208437389913243884e-15 -1.464497380588282678e-16 0.000000000000000000e+00 0.000000000000000000e+00 0.000000000000000000e+00 0.000000000000000000e+00 5.062497408585963472e-16 6.229514899508441279e-16 0.000000000000000000e+00 9.810559824925388986e-16 -4.627928836653561574e-16 1.161283819556363077e-15 1.208437389913243884e-15 -1.464497380588282678e-16 0.000000000000000000e+00 1.707485226585829856e-15 -2.105012032604620992e-15 0.000000000000000000e+00 -6.676939286836394345e-16 -7.093334606243955344e-16 0.000000000000000000e+00 -3.567261346586458704e-16 -8.594327105906870646e-16 1.161283819556363077e-15 1.208437389913243884e-15 -1.464497380588282678e-16 0.000000000000000000e+00 0.000000000000000000e+00 0.000000000000000000e+00 0.000000000000000000e+00 7.060772237561052255e-16 -2.477178587133158391e-15 0.000000000000000000e+00 5.289810208246573253e-16 8.069921374504079969e-16 1.161283819556363077e-15 1.208437389913243884e-15 -1.464497380588282678e-16 0.000000000000000000e+00 0.000000000000000000e+00 0.000000000000000000e+00 0.000000000000000000e+00 -7.341256701513015989e-16 5.426308322214090893e-16 0.000000000000000000e+00 -1.802862092211566708e-15 -2.815801078462792827e-16 1.754234961987073405e+00 1.509079352881449676e+00 -6.922713818825706467e-01 4.871491912719654316e+00 2.593701726902651661e+00 -4.893694370459583887e+00 1.658570069704920158e+01 4.965413355316865562e+00 1.798805796874388108e+01 -1.596379880268153029e+00 7.379425461932428432e-01 1.803587055152382934e+00 0.000000000000000000e+00 0.000000000000000000e+00 0.000000000000000000e+00 8.098349714470439245e-17 -6.361229978597137917e-16 0.000000000000000000e+00 -7.843071913400227173e-17 2.244541198061684707e-16 0.000000000000000000e+00 2.194474315570885278e-16 -1.358305450204718090e-15 -4.831893545308842261e-16 0.000000000000000000e+00 0.000000000000000000e+00 0.000000000000000000e+00 0.000000000000000000e+00 2.454982089672570487e-16 -1.293333879224031445e-16 0.000000000000000000e+00 -7.535903084711256674e-16 3.604815589039246675e-16 2.194474315570885278e-16 -1.358305450204718090e-15 -4.831893545308842261e-16 0.000000000000000000e+00 4.834266773343278256e-16 -9.680472372895075807e-16 0.000000000000000000e+00 3.582571136946191834e-17 1.911428618388265990e-16 0.000000000000000000e+00 3.322237118450407637e-16 1.024107606784975319e-15 2.194474315570885278e-16 -1.358305450204718090e-15 -4.831893545308842261e-16 0.000000000000000000e+00 0.000000000000000000e+00 0.000000000000000000e+00 0.000000000000000000e+00 6.197180762845197560e-16 8.293858480002675929e-16 0.000000000000000000e+00 1.905049184108776713e-15 1.348137163868461634e-15 2.194474315570885278e-16 -1.358305450204718090e-15 -4.831893545308842261e-16 0.000000000000000000e+00 0.000000000000000000e+00 0.000000000000000000e+00 0.000000000000000000e+00 1.850608275863242279e-16 1.341220361376593305e-16 0.000000000000000000e+00 4.127778396221955981e-16 -1.172285790451694785e-15
